REM DIRINDEX 1\2,1\3\7,1\3\8,1\4\9,1\4\10,1\4\11,1\5\12,1\5\13,1\5\14,1\6\15,1\6\16,1\6\17
REM DIRNAME "folder01","folder02","folder03","folder04","folder05","folder06","folder07","folder08","folder09","folder10","folder11","folder12","folder13","folder14","folder15","folder16","folder17"
TITLE ""
FILE "2Q_j_1691-1700.mp3" MP3
  TRACK 01 AUDIO
    TITLE "0:"
    INDEX 01 00:00:00
  TRACK 02 AUDIO
    TITLE "9:cjc174_1293"
    INDEX 01 00:00:08
  TRACK 03 AUDIO
    TITLE "0:"
    INDEX 01 00:01:69
  TRACK 04 AUDIO
    TITLE "10:cjc174_1294"
    INDEX 01 00:02:39
  TRACK 05 AUDIO
    TITLE "0:"
    INDEX 01 00:04:55
  TRACK 06 AUDIO
    TITLE "11:cjc174_1295"
    INDEX 01 00:05:25
  TRACK 07 AUDIO
    TITLE "0:"
    INDEX 01 00:08:16
  TRACK 08 AUDIO
    TITLE "9:cjc174_1296"
    INDEX 01 00:08:67
  TRACK 09 AUDIO
    TITLE "0:"
    INDEX 01 00:10:19
  TRACK 10 AUDIO
    TITLE "10:cjc174_1297"
    INDEX 01 00:10:62
  TRACK 11 AUDIO
    TITLE "0:"
    INDEX 01 00:13:15
  TRACK 12 AUDIO
    TITLE "11:cjc174_1298"
    INDEX 01 00:13:60
  TRACK 13 AUDIO
    TITLE "0:"
    INDEX 01 00:19:06
  TRACK 14 AUDIO
    TITLE "9:cjc174_1299"
    INDEX 01 00:19:51
  TRACK 15 AUDIO
    TITLE "0:"
    INDEX 01 00:21:03
  TRACK 16 AUDIO
    TITLE "10:cjc174_1300"
    INDEX 01 00:21:58
  TRACK 17 AUDIO
    TITLE "0:"
    INDEX 01 00:23:13
  TRACK 18 AUDIO
    TITLE "11:cjc174_1301"
    INDEX 01 00:23:58
  TRACK 19 AUDIO
    TITLE "0:"
    INDEX 01 00:26:37
  TRACK 20 AUDIO
    TITLE "9:cjc174_1302"
    INDEX 01 00:27:09
  TRACK 21 AUDIO
    TITLE "0:"
    INDEX 01 00:28:28
  TRACK 22 AUDIO
    TITLE "10:cjc174_1303"
    INDEX 01 00:28:75
  TRACK 23 AUDIO
    TITLE "0:"
    INDEX 01 00:30:25
  TRACK 24 AUDIO
    TITLE "11:cjc174_1304"
    INDEX 01 00:30:68
  TRACK 25 AUDIO
    TITLE "0:"
    INDEX 01 00:34:43
  TRACK 26 AUDIO
    TITLE "9:cjc174_1305"
    INDEX 01 00:35:15
  TRACK 27 AUDIO
    TITLE "0:"
    INDEX 01 00:36:34
  TRACK 28 AUDIO
    TITLE "10:cjc174_1306"
    INDEX 01 00:37:04
  TRACK 29 AUDIO
    TITLE "0:"
    INDEX 01 00:41:07
  TRACK 30 AUDIO
    TITLE "11:cjc174_1307"
    INDEX 01 00:41:50
  TRACK 31 AUDIO
    TITLE "0:"
    INDEX 01 00:43:73
  TRACK 32 AUDIO
    TITLE "9:cjc174_1308"
    INDEX 01 00:44:49
  TRACK 33 AUDIO
    TITLE "0:"
    INDEX 01 00:45:68
  TRACK 34 AUDIO
    TITLE "10:cjc174_1309"
    INDEX 01 00:46:38
  TRACK 35 AUDIO
    TITLE "0:"
    INDEX 01 00:48:50
  TRACK 36 AUDIO
    TITLE "11:cjc174_1310"
    INDEX 01 00:49:21
  TRACK 37 AUDIO
    TITLE "0:"
    INDEX 01 00:53:09
  TRACK 38 AUDIO
    TITLE "9:cjc174_1311"
    INDEX 01 00:53:54
  TRACK 39 AUDIO
    TITLE "0:"
    INDEX 01 00:54:53
  TRACK 40 AUDIO
    TITLE "10:cjc174_1312"
    INDEX 01 00:55:33
  TRACK 41 AUDIO
    TITLE "0:"
    INDEX 01 00:59:27
  TRACK 42 AUDIO
    TITLE "11:cjc174_1313"
    INDEX 01 00:59:72
  TRACK 43 AUDIO
    TITLE "0:"
    INDEX 01 01:03:25
  TRACK 44 AUDIO
    TITLE "9:cjc174_1314"
    INDEX 01 01:04:01
  TRACK 45 AUDIO
    TITLE "0:"
    INDEX 01 01:05:25
  TRACK 46 AUDIO
    TITLE "10:cjc174_1315"
    INDEX 01 01:06:05
  TRACK 47 AUDIO
    TITLE "0:"
    INDEX 01 01:08:71
  TRACK 48 AUDIO
    TITLE "11:cjc174_1316"
    INDEX 01 01:09:41
  TRACK 49 AUDIO
    TITLE "0:"
    INDEX 01 01:12:45
  TRACK 50 AUDIO
    TITLE "9:cjc174_1317"
    INDEX 01 01:13:21
  TRACK 51 AUDIO
    TITLE "0:"
    INDEX 01 01:14:28
  TRACK 52 AUDIO
    TITLE "10:cjc174_1318"
    INDEX 01 01:15:06
  TRACK 53 AUDIO
    TITLE "0:"
    INDEX 01 01:17:13
  TRACK 54 AUDIO
    TITLE "11:cjc174_1319"
    INDEX 01 01:17:60
  TRACK 55 AUDIO
    TITLE "0:"
    INDEX 01 01:21:46
  TRACK 56 AUDIO
    TITLE "9:cjc174_1320"
    INDEX 01 01:22:18
  TRACK 57 AUDIO
    TITLE "0:"
    INDEX 01 01:23:39
  TRACK 58 AUDIO
    TITLE "10:cjc174_1321"
    INDEX 01 01:24:11
  TRACK 59 AUDIO
    TITLE "0:"
    INDEX 01 01:27:19
  TRACK 60 AUDIO
    TITLE "11:cjc174_1322"
    INDEX 01 01:27:62
  TRACK 61 AUDIO
    TITLE "0:"
    INDEX 01 01:32:16
